<svg id="svg" version="1.1" width="400" height="149.13061059441975" viewBox="0 0 400 149.13061059441975" xmlns="http://www.w3.org/2000/svg" xmlns:xlink="http://www.w3.org/1999/xlink" ><g id="svgg"><path id="path0" d="M261.370 11.124 L 259.823 11.179 258.203 13.249 L 256.583 15.318 254.044 15.326 L 251.505 15.333 249.804 16.750 L 248.103 18.167 243.404 18.167 L 238.705 18.167 238.443 17.766 C 237.592 16.468,234.916 15.075,232.963 14.914 C 230.870 14.742,230.604 14.829,229.003 16.209 C 225.903 18.881,225.090 20.792,226.658 21.718 C 227.394 22.153,227.466 22.115,229.479 20.233 L 231.368 18.467 232.018 19.100 C 232.852 19.915,232.867 19.852,231.500 21.261 L 230.333 22.464 230.333 23.566 L 230.333 24.667 227.458 24.669 L 224.583 24.670 223.375 25.766 L 222.167 26.861 222.167 28.097 L 222.167 29.333 221.078 29.333 C 219.715 29.333,219.714 29.335,219.986 31.820 C 220.280 34.495,220.298 34.517,221.439 33.586 C 222.308 32.879,222.424 32.833,223.371 32.833 L 224.378 32.833 225.606 34.000 L 226.834 35.167 229.298 35.167 L 231.763 35.167 232.583 34.333 C 233.398 33.506,233.412 33.500,234.470 33.500 L 235.536 33.500 237.335 35.125 C 238.325 36.019,239.123 36.798,239.109 36.858 C 239.095 36.917,238.558 37.546,237.917 38.255 C 237.275 38.964,236.725 39.610,236.694 39.689 C 236.664 39.768,235.026 39.833,233.055 39.833 L 229.470 39.833 228.610 39.079 C 227.114 37.767,226.770 37.667,223.781 37.667 C 221.743 37.667,221.167 37.715,221.167 37.884 C 221.167 38.003,221.421 38.857,221.733 39.781 C 224.761 48.775,231.073 56.356,239.372 60.969 C 240.704 61.709,240.667 61.748,240.667 59.628 L 240.667 57.756 243.171 55.263 C 246.542 51.909,246.544 51.630,243.235 48.566 C 242.273 47.675,240.727 46.090,239.799 45.045 L 238.112 43.143 238.725 42.530 L 239.338 41.917 239.711 42.361 C 243.618 47.013,243.758 47.131,245.526 47.291 C 247.214 47.444,249.580 46.262,250.380 44.866 L 250.677 44.347 249.464 43.215 C 248.796 42.593,247.612 41.467,246.833 40.713 L 245.417 39.344 245.951 38.807 L 246.486 38.270 246.868 38.760 C 247.078 39.029,247.554 39.624,247.926 40.083 L 248.601 40.917 250.043 41.000 L 251.484 41.083 252.616 42.333 C 253.238 43.021,254.130 43.988,254.597 44.482 L 255.446 45.381 256.598 44.174 C 257.232 43.510,258.657 42.115,259.765 41.074 L 261.780 39.182 265.015 42.335 C 268.635 45.862,268.672 45.882,270.172 45.125 C 271.281 44.566,271.640 43.319,271.168 41.671 C 271.020 41.154,271.046 41.059,271.420 40.755 C 271.649 40.569,272.580 39.742,273.489 38.917 L 275.141 37.417 275.154 36.042 L 275.167 34.667 277.292 34.661 L 279.417 34.655 282.042 32.101 C 285.056 29.168,284.896 29.588,283.859 27.333 C 281.215 21.583,276.071 15.000,274.222 15.000 C 273.498 15.000,273.403 14.940,272.165 13.708 C 269.475 11.032,268.760 10.861,261.370 11.124 M284.081 32.545 C 283.441 33.211,282.745 33.976,282.534 34.243 L 282.152 34.730 282.534 34.943 C 283.156 35.288,284.559 35.215,285.429 34.792 C 286.303 34.367,286.323 34.219,285.757 32.292 C 285.408 31.101,285.479 31.090,284.081 32.545 M272.121 46.486 C 271.428 47.132,271.425 47.141,271.738 47.487 C 272.725 48.578,275.636 48.021,275.014 46.860 C 274.382 45.678,273.157 45.520,272.121 46.486 M277.198 48.208 C 274.692 50.567,274.637 50.678,275.780 51.068 C 277.521 51.661,278.235 51.340,279.989 49.175 L 280.995 47.933 280.635 47.550 C 279.857 46.722,278.501 46.982,277.198 48.208 M266.500 48.682 L 265.750 49.023 268.083 51.312 C 271.396 54.561,273.422 55.440,274.815 54.231 C 274.905 54.153,273.207 52.205,271.598 50.540 C 269.544 48.415,268.180 47.917,266.500 48.682 M276.922 54.017 C 276.199 54.653,276.187 54.873,276.854 55.348 C 278.337 56.404,280.572 55.206,279.401 53.984 C 278.735 53.288,277.737 53.302,276.922 54.017 " stroke="none" fill="#cfdfef" fill-rule="evenodd"></path><path id="path1" d="M246.000 1.016 C 238.078 1.698,229.781 4.936,223.808 9.675 C 222.832 10.449,221.768 11.289,221.445 11.540 C 219.839 12.785,214.000 19.788,214.000 20.468 C 214.000 20.557,213.723 21.031,213.385 21.523 C 211.205 24.690,209.019 30.555,208.331 35.083 C 206.949 44.178,208.070 51.223,212.238 59.638 C 212.814 60.799,213.707 62.612,214.223 63.667 C 215.190 65.642,216.410 67.744,218.191 70.500 C 218.754 71.371,219.401 72.421,219.628 72.833 C 219.856 73.246,220.319 73.958,220.658 74.417 C 220.997 74.875,221.992 76.265,222.869 77.506 C 223.746 78.747,224.584 79.862,224.732 79.985 C 224.879 80.107,225.000 80.286,225.000 80.381 C 225.000 80.538,226.293 82.272,229.463 86.364 C 230.079 87.159,230.865 88.209,231.209 88.697 C 231.553 89.184,232.042 89.808,232.296 90.083 C 232.859 90.692,235.513 93.947,235.845 94.435 C 235.976 94.628,236.465 95.228,236.933 95.768 C 237.400 96.308,239.000 98.175,240.490 99.917 C 248.348 109.106,249.547 109.990,251.410 107.969 C 251.780 107.567,252.845 106.416,253.776 105.411 C 254.707 104.406,256.798 102.046,258.423 100.167 C 260.047 98.287,261.573 96.525,261.814 96.250 C 263.399 94.440,267.932 88.875,269.500 86.813 C 270.004 86.151,270.629 85.378,270.888 85.096 C 271.643 84.276,274.000 81.209,274.000 81.047 C 274.000 80.966,274.361 80.491,274.803 79.992 C 275.910 78.740,278.824 74.826,280.443 72.417 C 283.591 67.733,284.271 66.679,284.651 65.903 C 284.872 65.452,285.193 64.821,285.365 64.500 C 287.935 59.705,289.879 54.943,290.331 52.336 C 290.419 51.830,290.695 50.404,290.945 49.167 C 291.574 46.047,291.620 39.760,291.037 36.583 C 290.835 35.483,290.560 33.978,290.427 33.238 C 289.843 30.000,287.615 24.494,285.671 21.487 C 285.302 20.916,285.000 20.379,285.000 20.294 C 285.000 20.016,283.037 17.274,282.049 16.172 C 279.076 12.855,277.926 11.637,277.449 11.300 C 277.156 11.093,276.129 10.287,275.167 9.508 C 273.360 8.047,270.864 6.392,269.730 5.903 C 269.375 5.750,268.521 5.341,267.833 4.995 C 261.624 1.866,253.439 0.375,246.000 1.016 M255.003 5.424 C 275.853 8.332,290.813 28.986,286.747 49.250 C 285.977 53.088,285.436 53.974,282.212 56.664 C 275.008 62.677,267.017 65.568,257.583 65.574 C 252.857 65.577,251.836 65.422,245.500 63.731 C 244.996 63.596,243.740 63.124,242.708 62.682 L 240.833 61.877 240.833 65.315 L 240.833 68.754 238.098 71.486 L 235.362 74.217 234.223 74.122 C 230.293 73.792,229.182 72.044,229.485 66.667 L 229.602 64.583 228.836 63.750 C 226.938 61.683,226.120 58.334,226.710 55.042 L 226.837 54.333 223.669 54.333 L 220.501 54.333 219.709 53.542 C 219.273 53.106,218.148 52.008,217.208 51.102 L 215.500 49.454 215.504 46.185 L 215.508 42.917 217.931 40.333 C 219.264 38.912,220.486 37.689,220.646 37.613 C 220.922 37.484,220.920 37.399,220.604 35.999 L 220.271 34.521 219.666 35.000 L 219.061 35.479 218.384 35.076 C 216.690 34.066,216.881 32.186,218.888 30.122 L 219.618 29.370 219.736 26.810 C 220.073 19.506,220.545 18.165,223.818 15.206 C 232.469 7.386,243.734 3.853,255.003 5.424 M306.583 94.112 C 289.464 95.551,278.318 111.940,283.159 128.558 C 284.966 134.760,290.535 142.184,294.455 143.616 C 294.617 143.675,295.313 144.045,296.000 144.439 C 302.313 148.053,312.420 148.722,320.540 146.063 C 322.199 145.519,322.165 145.983,320.907 141.141 C 319.616 136.172,319.938 136.727,318.645 137.239 C 313.907 139.113,306.963 139.116,302.885 137.247 C 289.778 131.239,289.968 110.179,303.182 104.388 C 307.248 102.606,313.199 102.627,318.472 104.442 C 319.143 104.673,319.718 104.837,319.749 104.806 C 319.854 104.701,321.991 96.269,321.929 96.206 C 320.663 94.941,311.539 93.696,306.583 94.112 M327.833 120.833 L 327.833 146.833 343.500 146.833 L 359.167 146.833 359.167 142.333 L 359.167 137.833 349.000 137.833 L 338.833 137.833 338.833 116.333 L 338.833 94.833 333.333 94.833 L 327.833 94.833 327.833 120.833 M365.333 120.833 L 365.333 146.833 381.833 146.833 L 398.333 146.833 398.333 142.333 L 398.333 137.833 387.333 137.833 L 376.333 137.833 376.333 131.250 L 376.333 124.667 386.750 124.667 L 397.167 124.667 397.167 120.167 L 397.167 115.667 386.750 115.667 L 376.333 115.667 376.333 109.750 L 376.333 103.833 387.333 103.833 L 398.333 103.833 398.333 99.333 L 398.333 94.833 381.833 94.833 L 365.333 94.833 365.333 120.833 M72.167 118.902 C 72.167 139.111,72.164 139.037,72.994 141.167 C 74.496 145.022,78.982 147.480,84.542 147.497 C 85.160 147.499,85.669 147.481,85.673 147.458 C 85.723 147.118,86.326 139.799,86.329 139.495 C 86.333 139.101,86.251 139.057,85.125 138.851 C 83.749 138.598,83.435 138.466,82.788 137.861 C 81.810 136.949,81.833 137.432,81.833 117.886 L 81.833 100.000 77.000 100.000 L 72.167 100.000 72.167 118.902 M93.333 109.500 L 93.333 114.667 90.917 114.667 L 88.500 114.667 88.500 118.333 L 88.500 122.000 90.901 122.000 L 93.302 122.000 93.374 130.208 C 93.454 139.297,93.425 139.032,94.617 141.401 C 97.171 146.472,104.295 148.592,111.135 146.316 C 112.489 145.865,112.455 146.126,111.711 141.982 L 111.072 138.417 110.577 138.457 C 110.306 138.480,109.369 138.567,108.495 138.652 C 105.334 138.958,104.284 138.599,103.417 136.913 L 102.917 135.941 102.867 128.971 L 102.816 122.000 106.742 122.000 L 110.667 122.000 110.667 118.333 L 110.667 114.667 106.750 114.667 L 102.833 114.667 102.833 109.500 L 102.833 104.333 98.083 104.333 L 93.333 104.333 93.333 109.500 M15.846 114.344 C 6.525 116.356,0.709 124.829,2.412 133.915 C 3.570 140.097,8.431 145.167,14.917 146.957 C 18.388 147.915,24.193 147.571,27.180 146.231 C 28.315 145.721,28.293 145.816,27.763 143.697 C 27.541 142.810,27.279 141.627,27.179 141.069 C 26.849 139.215,26.510 138.290,26.197 138.388 C 17.676 141.049,12.108 138.679,11.188 132.000 C 10.168 124.596,17.193 119.974,25.302 122.714 C 26.560 123.138,26.485 123.214,26.977 121.035 C 27.178 120.145,27.530 118.629,27.759 117.667 C 27.987 116.704,28.172 115.862,28.170 115.794 C 28.131 114.486,19.753 113.500,15.846 114.344 M171.933 114.266 C 170.517 114.608,168.574 115.703,167.018 117.035 L 165.667 118.191 165.667 116.429 L 165.667 114.667 160.917 114.667 L 156.167 114.667 156.167 130.833 L 156.167 147.000 160.917 147.000 L 165.667 147.000 165.667 136.350 L 165.667 125.699 166.586 125.089 C 168.879 123.567,171.315 122.833,174.076 122.833 L 175.667 122.833 175.667 118.417 L 175.667 114.000 174.292 114.014 C 173.535 114.022,172.474 114.135,171.933 114.266 M190.635 114.329 C 188.249 114.832,186.754 115.454,184.858 116.732 C 184.368 117.063,183.905 117.333,183.829 117.333 C 183.652 117.333,181.167 119.840,181.167 120.019 C 181.167 120.094,180.861 120.627,180.488 121.203 C 176.747 126.975,176.711 134.733,180.401 140.236 C 180.822 140.864,181.167 141.426,181.167 141.486 C 181.167 141.983,183.905 144.061,186.167 145.280 C 191.703 148.264,200.875 148.269,206.833 145.291 C 207.689 144.864,207.906 144.680,207.864 144.417 C 207.618 142.842,206.268 137.833,206.090 137.833 C 205.972 137.833,205.525 137.989,205.095 138.179 C 203.420 138.920,199.806 139.528,197.000 139.541 C 191.218 139.568,188.342 137.950,187.524 134.208 L 187.369 133.500 198.684 133.500 L 210.000 133.500 210.000 130.506 C 210.000 127.134,209.680 124.962,208.914 123.137 C 208.671 122.557,208.387 121.858,208.284 121.583 C 207.792 120.279,205.862 117.843,204.869 117.274 C 204.685 117.169,203.915 116.692,203.157 116.213 C 199.979 114.206,194.865 113.437,190.635 114.329 M32.546 124.875 C 32.606 134.749,32.620 135.132,32.977 136.570 C 33.599 139.069,35.693 142.542,37.126 143.450 C 37.378 143.609,37.996 144.073,38.500 144.480 C 42.693 147.866,50.823 148.522,56.262 145.915 C 59.762 144.236,62.080 141.854,63.577 138.396 C 64.717 135.763,64.710 135.837,64.786 124.708 L 64.854 114.667 60.011 114.667 L 55.167 114.667 55.165 124.292 C 55.162 135.681,55.105 136.064,53.139 137.938 C 50.709 140.254,45.355 140.037,43.647 137.555 C 42.042 135.222,42.000 134.875,42.000 123.992 L 42.000 114.667 37.242 114.667 L 32.483 114.667 32.546 124.875 M116.539 124.875 C 116.603 136.568,116.560 136.190,118.166 139.317 C 122.985 148.697,138.041 150.494,145.134 142.534 C 148.466 138.795,148.833 136.935,148.833 123.796 L 148.833 114.667 144.083 114.667 L 139.333 114.667 139.333 123.757 C 139.333 133.738,139.276 134.467,138.339 136.322 C 136.063 140.828,128.913 140.696,126.833 136.110 C 126.041 134.364,126.000 133.755,126.000 123.886 L 126.000 114.667 121.242 114.667 L 116.483 114.667 116.539 124.875 M196.750 122.199 C 197.815 122.450,198.873 123.292,199.507 124.391 C 199.963 125.182,200.120 125.618,200.403 126.875 L 200.506 127.333 194.075 127.333 L 187.644 127.333 187.753 126.958 C 188.654 123.867,190.261 122.501,193.667 121.931 C 194.249 121.833,195.759 121.965,196.750 122.199 M246.083 139.602 C 233.385 140.918,234.680 146.656,247.816 147.280 C 257.492 147.739,264.691 144.036,259.353 141.344 C 256.672 139.992,250.341 139.161,246.083 139.602 " stroke="none" fill="#35393b" fill-rule="evenodd"></path><path id="path2" d="M245.583 5.361 C 237.037 6.325,227.900 10.821,222.300 16.817 C 220.802 18.420,220.011 21.933,220.003 27.006 L 220.000 29.263 219.154 30.090 C 217.108 32.088,216.846 34.061,218.511 34.922 C 219.119 35.237,220.602 34.476,220.331 33.989 C 220.136 33.639,219.756 29.941,219.882 29.613 C 219.968 29.391,220.213 29.333,221.078 29.333 L 222.167 29.333 222.167 28.097 L 222.167 26.861 223.375 25.766 L 224.583 24.670 227.458 24.669 L 230.333 24.667 230.333 23.566 L 230.333 22.464 231.500 21.261 C 232.867 19.852,232.852 19.915,232.018 19.100 L 231.368 18.467 229.479 20.233 C 227.466 22.115,227.394 22.153,226.658 21.718 C 225.090 20.792,225.903 18.881,229.003 16.209 C 230.604 14.829,230.870 14.742,232.963 14.914 C 234.916 15.075,237.592 16.468,238.443 17.766 L 238.705 18.167 243.404 18.167 L 248.103 18.167 249.804 16.750 L 251.505 15.333 254.044 15.326 L 256.583 15.318 258.194 13.261 L 259.804 11.204 262.861 11.083 C 268.539 10.859,269.603 11.159,272.165 13.708 C 273.392 14.929,273.503 15.000,274.190 14.993 L 274.917 14.986 274.177 14.317 C 266.825 7.672,255.774 4.210,245.583 5.361 M282.083 32.037 L 279.417 34.657 277.292 34.662 L 275.167 34.667 275.154 36.042 L 275.141 37.417 273.489 38.917 C 272.580 39.742,271.649 40.569,271.420 40.755 C 271.046 41.059,271.020 41.154,271.168 41.671 C 271.640 43.319,271.281 44.566,270.172 45.125 C 268.672 45.882,268.635 45.862,265.015 42.335 L 261.780 39.182 259.765 41.074 C 258.657 42.115,257.232 43.510,256.598 44.174 L 255.446 45.381 254.597 44.482 C 254.130 43.988,253.238 43.021,252.616 42.333 L 251.484 41.083 250.043 41.000 L 248.601 40.917 247.926 40.083 C 247.554 39.624,247.078 39.029,246.868 38.760 L 246.486 38.270 245.951 38.807 L 245.417 39.344 246.833 40.713 C 247.612 41.467,248.796 42.593,249.464 43.215 L 250.677 44.347 250.380 44.866 C 249.580 46.262,247.214 47.444,245.526 47.291 C 243.758 47.131,243.618 47.013,239.711 42.361 L 239.338 41.917 238.725 42.530 L 238.112 43.143 239.799 45.045 C 240.727 46.090,242.273 47.675,243.235 48.566 C 246.545 51.631,246.542 51.909,243.166 55.269 L 240.655 57.767 240.703 59.673 L 240.750 61.579 242.500 62.358 C 256.407 68.549,272.758 65.558,283.953 54.775 C 285.569 53.218,285.682 53.065,285.983 52.022 C 287.061 48.278,287.521 43.693,287.181 40.083 C 286.974 37.890,286.294 33.761,286.208 34.178 C 286.055 34.920,283.464 35.459,282.534 34.943 L 282.152 34.730 282.533 34.240 C 282.742 33.971,283.479 33.175,284.171 32.471 L 285.428 31.193 285.089 30.305 L 284.750 29.417 282.083 32.037 M221.432 33.592 C 220.919 34.010,220.500 34.420,220.500 34.503 C 220.500 34.586,220.651 35.300,220.835 36.090 C 221.173 37.539,221.160 37.833,220.763 37.833 C 220.643 37.833,219.447 39.012,218.106 40.452 L 215.667 43.071 215.670 46.244 L 215.674 49.417 218.156 51.792 L 220.639 54.167 223.838 54.167 L 227.038 54.167 226.916 55.125 C 226.462 58.669,227.187 61.707,228.955 63.674 L 229.663 64.461 229.559 67.022 C 229.360 71.939,230.276 73.372,233.914 73.833 L 235.245 74.002 237.872 71.378 L 240.500 68.754 240.500 65.165 L 240.500 61.577 239.458 61.010 C 235.894 59.070,232.816 56.645,229.816 53.415 C 225.963 49.267,221.167 40.655,221.167 37.884 C 221.167 37.715,221.743 37.667,223.781 37.667 C 226.770 37.667,227.114 37.767,228.610 39.079 L 229.470 39.833 233.055 39.833 C 235.026 39.833,236.664 39.768,236.694 39.689 C 236.725 39.610,237.275 38.964,237.917 38.255 C 238.558 37.546,239.095 36.917,239.109 36.858 C 239.123 36.798,238.325 36.019,237.335 35.125 L 235.536 33.500 234.470 33.500 C 233.412 33.500,233.398 33.506,232.583 34.333 L 231.763 35.167 229.298 35.167 L 226.834 35.167 225.606 34.000 L 224.378 32.833 223.371 32.833 C 222.423 32.833,222.309 32.878,221.432 33.592 M274.395 46.180 C 275.092 46.727,275.247 47.135,274.903 47.515 C 274.182 48.311,272.470 48.296,271.738 47.487 C 270.928 46.592,273.384 45.384,274.395 46.180 M280.635 47.550 L 280.995 47.933 279.989 49.175 C 278.235 51.340,277.521 51.661,275.780 51.068 C 274.637 50.678,274.692 50.567,277.198 48.208 C 278.501 46.982,279.857 46.722,280.635 47.550 M269.435 48.749 C 270.419 49.239,275.087 53.996,274.815 54.231 C 273.422 55.440,271.396 54.561,268.083 51.312 L 265.750 49.023 266.500 48.682 C 267.510 48.222,268.420 48.243,269.435 48.749 M279.401 53.984 C 280.572 55.206,278.337 56.404,276.854 55.348 C 276.187 54.873,276.199 54.653,276.922 54.017 C 277.737 53.302,278.735 53.288,279.401 53.984 " stroke="none" fill="#8aacc3" fill-rule="evenodd"></path><path id="path3" d="M219.893 27.833 C 219.893 28.704,219.922 29.060,219.956 28.625 C 219.990 28.190,219.990 27.477,219.956 27.042 C 219.922 26.606,219.893 26.962,219.893 27.833 M218.242 40.208 L 217.583 40.917 218.292 40.258 C 218.681 39.895,219.000 39.577,219.000 39.550 C 219.000 39.423,218.855 39.550,218.242 40.208 M287.205 40.500 C 287.205 40.821,287.240 40.952,287.282 40.792 C 287.323 40.631,287.323 40.369,287.282 40.208 C 287.240 40.048,287.205 40.179,287.205 40.500 M287.205 45.000 C 287.205 45.321,287.240 45.452,287.282 45.292 C 287.323 45.131,287.323 44.869,287.282 44.708 C 287.240 44.548,287.205 44.679,287.205 45.000 M218.000 51.750 C 218.591 52.346,219.111 52.833,219.157 52.833 C 219.203 52.833,218.757 52.346,218.167 51.750 C 217.576 51.154,217.055 50.667,217.010 50.667 C 216.964 50.667,217.409 51.154,218.000 51.750 M226.705 56.500 C 226.705 56.821,226.740 56.952,226.782 56.792 C 226.823 56.631,226.823 56.369,226.782 56.208 C 226.740 56.048,226.705 56.179,226.705 56.500 M237.831 71.458 L 235.250 74.083 237.875 71.502 C 240.314 69.104,240.575 68.833,240.456 68.833 C 240.432 68.833,239.251 70.015,237.831 71.458 " stroke="none" fill="#768ea6" fill-rule="evenodd"></path><path id="path4" d="M248.881 5.123 C 249.412 5.157,250.237 5.156,250.714 5.123 C 251.192 5.089,250.758 5.062,249.750 5.062 C 248.742 5.063,248.351 5.090,248.881 5.123 M222.495 16.458 L 221.417 17.583 222.542 16.505 C 223.587 15.503,223.743 15.333,223.620 15.333 C 223.595 15.333,223.088 15.840,222.495 16.458 M221.026 18.125 C 220.578 18.982,219.828 23.617,219.860 25.333 C 219.877 26.246,219.902 26.142,220.020 24.667 C 220.169 22.815,220.912 18.642,221.184 18.135 C 221.273 17.969,221.308 17.833,221.262 17.833 C 221.216 17.833,221.110 17.965,221.026 18.125 M219.667 27.946 C 219.667 29.368,219.657 29.401,219.125 29.875 L 218.583 30.357 219.208 29.909 L 219.833 29.460 219.833 27.980 C 219.833 27.166,219.796 26.500,219.750 26.500 C 219.704 26.500,219.667 27.151,219.667 27.946 M217.333 33.953 C 217.333 34.844,218.967 35.572,219.671 34.995 L 220.250 34.520 220.591 35.968 C 220.911 37.328,220.915 37.427,220.647 37.583 C 220.489 37.675,219.269 38.912,217.935 40.333 L 215.508 42.917 215.527 46.250 L 215.545 49.583 217.314 51.247 L 219.083 52.911 217.375 51.161 L 215.667 49.411 215.670 46.164 L 215.673 42.917 218.184 40.292 C 219.566 38.848,220.810 37.667,220.949 37.667 C 221.097 37.667,221.165 37.570,221.113 37.434 C 221.064 37.306,220.893 36.575,220.733 35.809 C 220.572 35.043,220.421 34.389,220.395 34.355 C 220.370 34.321,220.058 34.523,219.704 34.804 L 219.058 35.315 218.556 35.010 C 218.280 34.842,217.892 34.498,217.694 34.246 C 217.495 33.994,217.333 33.863,217.333 33.953 M287.394 42.750 C 287.395 43.667,287.423 44.020,287.456 43.536 C 287.490 43.052,287.490 42.302,287.456 41.869 C 287.421 41.437,287.394 41.833,287.394 42.750 M219.763 53.536 L 220.417 54.322 223.627 54.328 L 226.837 54.333 226.710 55.042 C 226.102 58.438,227.048 62.062,229.027 63.917 L 229.739 64.583 228.989 63.750 C 227.066 61.612,226.373 58.651,226.865 54.667 L 226.917 54.250 223.752 54.205 L 220.588 54.159 219.848 53.455 L 219.109 52.750 219.763 53.536 M283.997 54.761 C 283.128 55.637,281.723 56.886,280.875 57.535 C 279.225 58.797,278.842 59.188,280.105 58.319 C 281.482 57.371,283.744 55.389,284.731 54.264 C 286.064 52.746,285.851 52.890,283.997 54.761 M278.286 59.403 C 277.303 60.084,277.069 60.323,277.794 59.905 C 278.354 59.583,279.315 58.843,279.167 58.849 C 279.121 58.850,278.725 59.100,278.286 59.403 M276.625 60.429 C 276.002 60.767,276.040 60.907,276.667 60.583 C 276.942 60.441,277.167 60.289,277.167 60.246 C 277.167 60.138,277.149 60.145,276.625 60.429 M273.975 61.816 C 272.908 62.342,271.388 62.991,270.597 63.260 C 269.807 63.528,269.224 63.769,269.303 63.795 C 269.726 63.936,276.000 61.238,276.000 60.915 C 276.000 60.810,276.196 60.722,273.975 61.816 M240.500 65.294 L 240.500 68.921 237.932 71.485 L 235.364 74.049 234.223 73.936 C 232.077 73.724,230.502 72.878,230.001 71.668 C 229.884 71.386,229.755 71.189,229.714 71.230 C 229.583 71.362,230.022 72.065,230.638 72.709 C 231.371 73.476,232.682 73.993,234.223 74.122 L 235.362 74.217 238.098 71.486 L 240.833 68.754 240.833 65.303 L 240.833 61.852 242.046 62.405 C 243.427 63.034,245.589 63.836,245.885 63.828 C 245.994 63.825,245.333 63.535,244.417 63.183 C 243.500 62.831,242.309 62.346,241.771 62.105 C 241.232 61.864,240.726 61.667,240.646 61.667 C 240.566 61.667,240.500 63.299,240.500 65.294 M256.300 65.624 C 257.060 65.655,258.260 65.655,258.966 65.624 C 259.672 65.593,259.050 65.567,257.583 65.567 C 256.117 65.568,255.539 65.593,256.300 65.624 M229.375 68.583 C 229.377 68.950,229.411 69.080,229.451 68.873 C 229.491 68.666,229.490 68.366,229.448 68.206 C 229.406 68.047,229.374 68.217,229.375 68.583 " stroke="none" fill="#5e7687" fill-rule="evenodd"></path></g></svg>